<svg fill="none" height="32" viewBox="0 0 33 32" width="33" xmlns="http://www.w3.org/2000/svg" xmlns:xlink="http://www.w3.org/1999/xlink"><clipPath id="a"><path d="m3.59363 3h26.0695v26h-26.0695z"/></clipPath><g clip-path="url(#a)" fill="#8789a3"><path d="m29.6631 3h-.7637c-1.2465 0-2.3555.59922-3.053 1.52344h-.002c-1.2481 0-2.3579.60023-3.0551 1.52597v-.00253c-2.1059 0-3.8187 1.70868-3.8187 3.80859v3.66373l-2.3422 2.3037-2.3422-2.3037v-3.66373c0-2.09991-1.7128-3.80859-3.8188-3.80859v.00253c-.69708-.92574-1.80692-1.52597-3.055-1.52597h-.00203c-.69741-.92422-1.80654-1.52344-3.05299-1.52344h-.76375v11.9651l5.41151 6.4177h-.82898v7.6172h16.90444v-7.6172h-.829l5.4115-6.4177zm-16.9044 6.85547v2.30853c-.466-.2805-.9869-.458-1.5275-.5205v-3.31147c0-.22141-.0203-.43875-.0565-.65.9181.29809 1.584 1.15934 1.584 2.17344zm-4.58254-3.67809c.88901.31444 1.52751 1.16142 1.52751 2.15465v3.43887c-.36362.1062-.70927.2661-1.02547.4743l-.50204-.5002zm7.68844 21.29922h-6.16093v-4.5704h6.16093zm0-6.0938h-4.8636l-5.87986-6.9727v-9.7561c.88901.31428 1.52751 1.16131 1.52751 2.15459v5.56771l4.80605 4.7932 1.0805-1.077-2.73942-2.7321c.30452-.1459.64002-.2224.98792-.2224.612 0 1.1874.2376 1.6202.6693l3.4607 3.4039zm7.6885-13.05077c0-.99323.6385-1.84021 1.5275-2.15465v5.56762l-.502.5002c-.3162-.2082-.6619-.3681-1.0255-.4743zm-3.055 1.52344c0-1.01405.6659-1.87535 1.584-2.17344-.0372.21469-.0561.43213-.0565.65v3.31147c-.5406.0625-1.0615.24-1.5275.5205zm3.055 17.62113h-6.161v-4.5704h6.161zm4.5825-13.0665-5.8799 6.9727h-4.8636v-4.1716l3.4608-3.4039c.4328-.4317 1.0082-.6693 1.6202-.6693.3479 0 .6834.0765.9879.2224l-2.7393 2.732 1.0803 1.0771 4.8061-4.7932v-5.56771c0-.99323.6385-1.84021 1.5275-2.15464z"/><path d="m20.498 24.4297h1.5276v1.5234h-1.5276z"/><path d="m11.2312 24.4297h1.5275v1.5234h-1.5275z"/></g></svg>