<svg fill="none" height="32" viewBox="0 0 33 32" width="33" xmlns="http://www.w3.org/2000/svg" xmlns:xlink="http://www.w3.org/1999/xlink"><clipPath id="a"><path d="m.19519 0h32.0856v32h-32.0856z"/></clipPath><g clip-path="url(#a)"><path d="m13.9517 22.0473h4.5729c.1489-1.431.8404-2.612 1.9628-3.9013.1274-.1453.9385-1.0322 1.0343-1.1584.7967-1.0505 1.2961-2.3171 1.4406-3.654.1446-1.3369-.0716-2.6897-.6236-3.90265-.552-1.21291-1.4174-2.23661-2.4964-2.9532-1.0791-.71658-2.328-1.09692-3.6029-1.09721-1.2749-.00028-2.524.37949-3.6034 1.09559-1.0793.7161-1.9451 1.73941-2.4976 2.95207-.55247 1.2127-.7692 2.5654-.62521 3.9023.144 1.337.64281 2.6038 1.43911 3.6547.097.1274.9103 1.0155 1.0355 1.1596 1.1235 1.2905 1.815 2.4715 1.9639 3.9025zm4.5425 2.3811h-4.5121v1.1905h4.5121zm-9.30158-5.9527c-1.06237-1.4009-1.72816-3.09-1.9207-4.8729-.19253-1.7828.09604-3.5867.83246-5.20404.73642-1.6173 1.89075-2.98213 3.33002-3.93728 1.4392-.95516 3.1048-1.46177 4.805-1.46148 1.7001.00029 3.3656.50746 4.8045 1.4631 1.439.95564 2.5929 2.32086 3.3288 3.93841.736 1.61759 1.024 3.42159.8309 5.20439-.1931 1.7827-.8594 3.4717-1.9222 4.8722-.6993.9191-2.5312 2.3787-2.5312 4.1645v2.9763c0 .6315-.2377 1.2372-.6608 1.6837s-.9969.6974-1.5952.6974h-4.5121c-.5983 0-1.1721-.2509-1.5952-.6974s-.6608-1.0522-.6608-1.6837v-2.9763c0-1.7858-1.83298-3.2454-2.53348-4.1669zm8.17358-5.9479h2.82l-5.0761 7.1432v-4.7621h-2.82l5.0761-7.14796v4.76806z" fill="#8789a3"/></g></svg>