<svg fill="none" height="24" viewBox="0 0 24 24" width="24" xmlns="http://www.w3.org/2000/svg" xmlns:xlink="http://www.w3.org/1999/xlink"><clipPath id="a"><path d="m0 0h24v24h-24z"/></clipPath><g clip-path="url(#a)"><path clip-rule="evenodd" d="m18.7146 12.513-11.76995 7.3924c-.0929.0582-.19992.0908-.30989.0943-.10998.0035-.2189-.0222-.31538-.0744-.09649-.0523-.17703-.1291-.2332-.2225-.05618-.0934-.08594-.2-.08618-.3086v-14.7872c.00002-.10873.02963-.21546.08571-.30904.05609-.09357.1366-.17056.23313-.22292.09652-.05236.20552-.07817.31561-.07474.11008.00344.21721.036.3102.09428l11.77115 7.39482c.0871.0549.1588.1305.2085.22.0497.0894.0757.1898.0757.2918s-.026.2024-.0757.2918c-.0497.0895-.1214.1652-.2085.22z" fill-rule="evenodd" stroke="#8789a3" stroke-linecap="round" stroke-width="2"/></g></svg>