<svg fill="none" height="32" viewBox="0 0 33 32" width="33" xmlns="http://www.w3.org/2000/svg" xmlns:xlink="http://www.w3.org/1999/xlink"><clipPath id="a"><path d="m.390381 0h32.0856v32h-32.0856z"/></clipPath><clipPath id="b"><path d="m2.39575 2h28.0749v28h-28.0749z"/></clipPath><g clip-path="url(#a)"><g clip-path="url(#b)"><path d="m23.8362 24.8064v-.9816c0-1.5635-.8713-2.9692-2.2735-3.6686l-2.6618-1.3272v-4.9576c0-1.3069-.6092-2.5036-1.6285-3.2697.0532-.2888.2303-.5317.4606-.60811 1.6828-.55847 2.8129-2.12259 2.8129-3.89228 0-2.53504-2.2711-4.4555-4.7975-4.04578-1.9537.31653-3.4277 2.13172-3.4277 4.22139v2.77265c-2.0501 2.16333-3.29007 5.09443-3.29007 8.25453v4.6333c0 1.2279.34337 2.4031.98427 3.4169-1.53694.5946-2.62928 2.0854-2.62928 3.8256v.8203h15.62788c1.3605 0 2.4677-1.1042 2.4677-2.4609.0005-.5616-.1524-1.1127-.4422-1.5942s-.7056-.8752-1.2028-1.1387zm-2.8499-3.0959c.7474.4425 1.2046 1.2371 1.2046 2.1143v.3888l-1.8632-.6196zm-7.0204-15.43358c0-1.29391.8799-2.41287 2.0468-2.60215 1.5784-.25632 2.8882.95512 2.8882 2.42654.0006.5168-.162 1.02064-.4649 1.43995s-.7306.73276-1.2223.89581c-.6492.21536-1.1539.71696-1.412 1.35417l-1.8358-.91557zm-3.2903 11.02718c0-2.5767.9357-5.0105 2.646-6.9151l2.5701 1.2813c.8416.4193 1.3642 1.2633 1.3642 2.2012v5.9713l2.2489 1.1218-.7377 2.111-3.1563-1.0496v-7.7213h-1.645v8.9038l2.4916.8284c-1.0971 1.2147-2.8338 1.7036-4.4531 1.1656l-.0521-.0175c-.8242-.8867-1.2766-2.0319-1.2766-3.2477zm12.3379 11.0555h-13.84195c.32627-.9182 1.18455-1.5871 2.20325-1.6374.073.0183.8445.3385 1.9693.3385 1.8757 0 3.6672-.9034 4.7727-2.4724l4.7212 1.5694c.2908.0965.5438.2819.723.5299s.2755.546.2752.8517c0 .4522-.369.8203-.8227.8203z" fill="#8789a3"/></g></g></svg>