<svg fill="none" height="32" viewBox="0 0 33 32" width="33" xmlns="http://www.w3.org/2000/svg" xmlns:xlink="http://www.w3.org/1999/xlink"><clipPath id="a"><path d="m2.00537 2h28.0749v28h-28.0749z"/></clipPath><g clip-path="url(#a)"><path d="m24.4934 4.21758-2.9773 1.18781-.582-1.32727-1.3209.14274c-1.3254.14268-2.4797.62032-3.5834 1.48958-1.104-.87139-2.2501-1.3486-3.5574-1.48964l-1.3214-.14268-.5815 1.32727-2.97794-1.18781-5.58619 12.99972 3.33565 1.2687v9.4355l10.68808-5.3297 10.6881 5.3297v-9.4268l3.363-1.277zm-17.50803 21.05052v-6.1562l7.00263 2.6643zm8.22163-4.7837-11.01579-4.1911 4.2796-9.95915 1.43917.57449-3.676 8.38486 8.97302 3.4417zm0-3.5066-6.19256-2.3751c1.05786-.5392 2.31416-.6091 3.46076-.1438l2.7318 1.1927zm0-3.1164-2.1004-.9168c-1.3012-.5313-2.7048-.5679-3.9786-.159l3.0462-6.94725c.1692.04299 1.4741.00153 3.0328 1.32065zm1.6442-6.70136c1.5295-1.28789 2.9734-1.29965 3.0602-1.32163l3.0336 6.92029c-1.2003-.3815-2.5054-.3301-3.7698.1859l-2.324.9491zm0 8.50586 2.9466-1.2033c1.1142-.4553 2.2769-.3957 3.286.1335l-6.2326 2.3834zm8.2216 9.6022-7.0009-3.4913 7.0009-2.658zm-8.2216-4.7826v-1.7499l9.0004-3.4415-3.6766-8.38546 1.4394-.57444 4.2796 9.9587z" fill="#8789a3"/></g></svg>