<svg fill="none" height="24" viewBox="0 0 24 24" width="24" xmlns="http://www.w3.org/2000/svg" xmlns:xlink="http://www.w3.org/1999/xlink"><clipPath id="a"><path d="m0 0h24v24h-24z"/></clipPath><g clip-path="url(#a)" stroke="#8789a3" stroke-width="2"><g stroke-linecap="round"><path d="m7 15c1.65685 0 3-1.3431 3-3s-1.34315-3-3-3-3 1.3431-3 3 1.34315 3 3 3z"/><path d="m17 9c1.6569 0 3-1.34315 3-3s-1.3431-3-3-3-3 1.34315-3 3 1.3431 3 3 3z"/><path d="m17 21c1.6569 0 3-1.3431 3-3s-1.3431-3-3-3-3 1.3431-3 3 1.3431 3 3 3z"/></g><path d="m9.5 10.5 5-3"/><path d="m14.5 16.5-5-3"/></g></svg>